<svg width="56" height="79" viewBox="0 0 56 79" fill="none" xmlns="http://www.w3.org/2000/svg">
<path d="M0.345703 25.4734V74.7756C7.09509 83.4231 13.8796 73.2816 16.4282 67.1299V25.4734C19.3284 17.3002 29.3735 14.798 35.9382 18.355C40.6838 20.9264 41.4748 27.3482 41.4748 29.9847C41.4748 33.1484 38.8383 39.1832 30.4016 39.1832V34.7012C30.4016 33.0138 29.5227 33.6466 29.0833 34.1739L19.0647 43.4016C17.5883 45.2998 18.2738 47.0048 18.8011 47.6199C20.9981 50.1685 25.8668 55.6876 27.7651 57.3749C29.6634 59.0623 30.3137 58.2537 30.4016 57.6386V52.3656C58.0319 48.1472 57.7331 26.8796 54.1299 16.773C47.275 -1.41869 21.9802 -1.34439 12.2099 4.38157C3.77313 9.32596 0.345703 19.872 0.345703 25.4734Z" fill="#F6FBF7"/>
</svg>
