<svg width="211" height="131" viewBox="0 0 211 131" fill="none" xmlns="http://www.w3.org/2000/svg">
<path d="M208.042 130.108C208.042 130.155 161.461 130.189 104.03 130.189C46.5994 130.189 0 130.155 0 130.108C0 130.061 46.5621 130.027 104.03 130.027C161.499 130.027 208.042 130.065 208.042 130.108Z" fill="#263238"/>
<path d="M197.816 88.1992H25.5234V113.48H197.816V88.1992Z" fill="#54DF6C"/>
<g opacity="0.5">
<path d="M197.816 88.2012H25.5234V113.482H197.816V88.2012Z" fill="black"/>
</g>
<path d="M49.7917 129.885C58.9466 129.269 65.8686 121.348 65.2525 112.193C64.6364 103.038 56.7155 96.116 47.5607 96.7321C38.4058 97.3482 31.4838 105.269 32.0999 114.424C32.716 123.579 40.6369 130.501 49.7917 129.885Z" fill="#263238"/>
<path d="M32.0662 113.027C32.0662 113.043 32.0662 113.058 32.0662 113.071C32.0346 115.253 32.433 117.419 33.2387 119.447C34.0445 121.475 35.2417 123.324 36.7621 124.889C38.2825 126.454 40.0962 127.704 42.0998 128.569C44.1034 129.433 46.2576 129.894 48.4393 129.925C50.6211 129.957 52.7877 129.558 54.8155 128.753C56.8433 127.947 58.6925 126.75 60.2576 125.229C61.8226 123.709 63.0729 121.895 63.9371 119.892C64.8012 117.888 65.2622 115.734 65.2938 113.552C65.2938 113.537 65.2938 113.521 65.2938 113.509L32.0662 113.027Z" fill="#263238"/>
<path d="M37.013 113.141C36.9788 115.448 37.6296 117.714 38.883 119.651C40.1364 121.588 41.9361 123.11 44.0545 124.024C46.1729 124.938 48.5147 125.203 50.7839 124.786C53.0531 124.369 55.1476 123.288 56.8025 121.681C58.4575 120.073 59.5985 118.011 60.0812 115.755C60.5639 113.499 60.3667 111.15 59.5145 109.006C58.6623 106.862 57.1934 105.019 55.2936 103.71C53.3937 102.401 51.1484 101.684 48.8414 101.652C45.7495 101.608 42.7666 102.793 40.5486 104.948C38.3305 107.102 37.0588 110.05 37.013 113.141Z" fill="#FAFAFA"/>
<path d="M48.8421 101.648C45.7499 101.603 42.7666 102.788 40.5483 104.943C38.3301 107.098 37.0586 110.045 37.0137 113.138L60.3382 113.476C60.3822 110.383 59.1957 107.399 57.0398 105.181C54.8839 102.963 51.9351 101.692 48.8421 101.648Z" fill="#E0E0E0"/>
<path d="M41.5711 113.207C41.5503 114.613 41.9468 115.993 42.7104 117.172C43.474 118.352 44.5704 119.279 45.8609 119.836C47.1514 120.393 48.578 120.554 49.9603 120.3C51.3426 120.046 52.6185 119.388 53.6265 118.408C54.6346 117.429 55.3295 116.173 55.6234 114.798C55.9174 113.424 55.7971 111.993 55.2778 110.687C54.7585 109.381 53.8636 108.258 52.7062 107.461C51.5488 106.664 50.1809 106.228 48.7756 106.208C47.8429 106.194 46.9167 106.365 46.0498 106.709C45.183 107.053 44.3925 107.565 43.7235 108.215C43.0545 108.865 42.52 109.641 42.1507 110.497C41.7814 111.354 41.5844 112.275 41.5711 113.207Z" fill="#263238"/>
<path d="M176.686 129.878C185.846 129.346 192.841 121.49 192.31 112.33C191.778 103.169 183.922 96.1744 174.762 96.7058C165.602 97.2372 158.607 105.094 159.138 114.254C159.669 123.414 167.526 130.409 176.686 129.878Z" fill="#263238"/>
<path d="M159.107 113.027C159.107 113.043 159.107 113.058 159.107 113.071C159.076 115.253 159.474 117.419 160.28 119.447C161.085 121.475 162.283 123.324 163.803 124.889C165.324 126.454 167.137 127.704 169.141 128.569C171.144 129.433 173.299 129.894 175.48 129.925C177.662 129.957 179.829 129.558 181.857 128.753C183.884 127.947 185.733 126.75 187.299 125.229C188.864 123.709 190.114 121.895 190.978 119.892C191.842 117.888 192.303 115.734 192.335 113.552C192.335 113.537 192.335 113.521 192.335 113.509L159.107 113.027Z" fill="#263238"/>
<path d="M164.054 113.141C164.02 115.448 164.671 117.714 165.924 119.651C167.177 121.588 168.977 123.11 171.096 124.024C173.214 124.938 175.556 125.203 177.825 124.786C180.094 124.369 182.189 123.288 183.844 121.681C185.498 120.073 186.639 118.011 187.122 115.755C187.605 113.499 187.408 111.15 186.556 109.006C185.703 106.862 184.234 105.019 182.335 103.71C180.435 102.401 178.189 101.684 175.882 101.652C172.79 101.608 169.808 102.793 167.59 104.948C165.372 107.102 164.1 110.05 164.054 113.141Z" fill="#FAFAFA"/>
<path d="M175.883 101.648C172.791 101.603 169.808 102.788 167.589 104.943C165.371 107.098 164.1 110.045 164.055 113.138L187.379 113.476C187.423 110.383 186.237 107.399 184.081 105.181C181.925 102.963 178.976 101.692 175.883 101.648Z" fill="#E0E0E0"/>
<path d="M168.604 113.207C168.584 114.613 168.98 115.993 169.744 117.172C170.507 118.352 171.604 119.279 172.894 119.836C174.185 120.393 175.611 120.554 176.994 120.3C178.376 120.046 179.652 119.388 180.66 118.408C181.668 117.429 182.363 116.173 182.657 114.798C182.951 113.424 182.83 111.993 182.311 110.687C181.792 109.381 180.897 108.258 179.739 107.461C178.582 106.664 177.214 106.228 175.809 106.208C174.876 106.194 173.95 106.365 173.083 106.709C172.216 107.053 171.426 107.565 170.757 108.215C170.088 108.865 169.553 109.641 169.184 110.497C168.815 111.354 168.618 112.275 168.604 113.207Z" fill="#263238"/>
<path d="M70.4518 73.9773C70.4518 73.9773 45.9876 75.7816 36.9137 77.8156C30.5228 79.2472 18.2006 81.7222 18.3497 89.4732L19.3279 95.0318C19.3279 95.0318 14.7599 97.1187 14.7599 102.447C14.7599 107.776 13.645 116.037 24.3151 116.369C26.0728 116.422 29.4111 116.369 29.4111 116.369C29.4111 116.369 27.3646 93.6437 48.239 92.9792C69.4767 92.3022 68.0669 116.161 68.0669 116.161H156.704C156.704 116.161 153.064 92.9171 175.926 92.8705C198.788 92.8239 195.31 116.313 195.31 116.313C195.31 116.313 203.719 117.04 207.632 109.972C211.545 102.904 210.53 97.8608 210.53 97.8608L210.399 93.3922C210.374 92.6588 210.072 91.9623 209.553 91.4434C209.034 90.9245 208.338 90.6221 207.604 90.5973C207.604 90.5973 209.132 79.3496 206.788 77.4026C204.443 75.4555 191.596 63.7078 191.596 63.7078L192.217 63.3259C192.447 63.1803 192.632 62.9725 192.749 62.7265C192.865 62.4805 192.91 62.2064 192.878 61.936C192.845 61.6655 192.737 61.4098 192.565 61.1985C192.393 60.9873 192.165 60.829 191.907 60.7422C187.028 59.0653 177.383 55.7456 175.116 54.9537C174.776 54.8331 174.422 54.7579 174.063 54.7302C172.709 54.6277 168.877 54.3855 161.843 54.3109C153.276 54.2178 119.259 54.3109 119.259 54.3109C119.259 54.3109 107.552 55.2736 101.031 58.143C94.1925 61.1614 70.4518 73.9773 70.4518 73.9773Z" fill="#54DF6C"/>
<g opacity="0.4">
<path d="M20.9641 101.824C20.0759 101.644 18.7158 101.629 18.0388 102.228C17.5357 102.675 17.4022 103.399 17.3277 104.066C17.1851 104.981 17.2061 105.914 17.3898 106.821C17.4835 107.274 17.6697 107.703 17.9369 108.081C18.2041 108.459 18.5464 108.777 18.9425 109.016C19.7561 109.457 20.8678 109.386 21.4982 108.706C22.0758 108.085 22.141 107.153 22.1193 106.324C22.0976 105.125 22.1938 104.11 21.9733 102.933C21.9247 102.683 21.8184 102.448 21.6628 102.247C21.5854 102.126 21.4813 102.025 21.3585 101.951C21.2357 101.877 21.0976 101.833 20.9548 101.821" fill="black"/>
</g>
<path d="M19.3337 95.0313C21.9298 95.0313 24.4482 94.8885 27.0412 94.7208C27.3237 94.7332 27.6019 94.6488 27.83 94.4817C27.9343 94.3519 28.0119 94.2028 28.0583 94.0429C28.1046 93.883 28.1189 93.7155 28.1002 93.5501C28.1002 92.1588 28.0443 90.5751 26.9884 89.6683C26.3425 89.1156 25.4575 88.9417 24.6097 88.864C22.5044 88.6366 20.3749 88.848 18.3555 89.4851L19.3337 95.0313Z" fill="#FAFAFA"/>
<path d="M73.2691 115.451C73.2691 115.451 73.2691 115.376 73.2504 115.227C73.2318 115.078 73.2256 114.857 73.207 114.575C73.1759 113.997 73.1293 113.156 73.0703 112.069C73.0113 110.982 72.9368 109.65 72.7815 108.109C72.6212 106.365 72.3147 104.638 71.8654 102.945C71.2986 100.9 70.4577 98.9418 69.3656 97.1226C68.1286 95.0218 66.4848 93.189 64.5305 91.7316C60.3414 88.7505 54.6802 87.0736 48.7583 86.9928C42.8363 86.9121 37.1721 88.7846 33.0854 91.9242C31.1265 93.3734 29.4105 95.125 28.0019 97.1133C26.7719 98.8395 25.7719 100.719 25.0269 102.703C24.4124 104.343 23.9904 106.049 23.7692 107.786C23.5961 109.097 23.5451 110.42 23.6171 111.74C23.668 112.573 23.7717 113.403 23.9276 114.224C23.9773 114.5 24.0177 114.715 24.0425 114.864C24.0674 115.013 24.0767 115.084 24.0767 115.084C24.0767 115.084 24.058 115.013 24.027 114.87L23.8935 114.249C23.7244 113.429 23.6124 112.599 23.5581 111.764C23.4736 110.441 23.5152 109.112 23.6823 107.796C23.8963 106.049 24.3132 104.334 24.9244 102.684C25.6668 100.684 26.6669 98.7894 27.8994 97.048C29.3113 95.0437 31.0348 93.2782 33.0047 91.8186C37.11 88.6635 42.7866 86.7723 48.7552 86.85C54.7237 86.9276 60.3941 88.62 64.6175 91.6291C66.5835 93.1011 68.2358 94.9508 69.4774 97.0698C70.5685 98.903 71.4043 100.877 71.9617 102.936C72.4085 104.636 72.7087 106.371 72.8592 108.122C73.0051 109.675 73.0703 110.997 73.12 112.084C73.1697 113.171 73.2038 114.016 73.2287 114.593C73.2287 114.876 73.2473 115.093 73.2535 115.246C73.2598 115.398 73.2691 115.451 73.2691 115.451Z" fill="white"/>
<path d="M74.1998 115.834V115.648L74.1812 115.098C74.1657 114.608 74.1439 113.89 74.1129 112.953C74.0601 111.068 73.9824 108.313 73.8831 104.807C73.7837 101.301 73.6688 97.0436 73.5353 92.1682C73.5011 90.9478 73.47 89.6839 73.4328 88.3951C73.411 87.7366 73.4401 87.0773 73.5197 86.4232L73.6595 85.4233L73.8644 84.4203C74.186 83.05 74.6491 81.7168 75.2463 80.4423C75.8613 79.1062 76.6215 77.842 77.5133 76.6723L92.8632 67.0022L97.0089 64.3936C98.4062 63.4651 99.8732 62.646 101.397 61.9435C102.955 61.2098 104.554 60.5659 106.185 60.015C106.999 59.7293 107.834 59.4964 108.67 59.248C109.505 58.9996 110.356 58.7946 111.219 58.6269C114.474 57.9305 117.783 57.515 121.11 57.3848C124.302 57.2318 127.499 57.2422 130.69 57.4158H130.78L130.758 57.5059L126.634 75.955C125.872 77.206 125.248 78.5355 124.771 79.9205C124.302 81.2341 124.091 82.626 124.15 84.0197C124.256 85.3829 124.293 86.7182 124.327 88.0132C124.361 89.3081 124.377 90.5627 124.401 91.7831C124.473 96.6586 124.492 100.91 124.504 104.413C124.516 107.916 124.504 110.67 124.504 112.552C124.504 113.484 124.504 114.207 124.504 114.698C124.504 114.937 124.504 115.12 124.504 115.247C124.504 115.375 124.504 115.434 124.504 115.434C124.504 115.434 124.504 115.369 124.504 115.247C124.504 115.126 124.504 114.937 124.504 114.698C124.504 114.207 124.504 113.49 124.504 112.552C124.504 110.67 124.476 107.916 124.454 104.416C124.433 100.916 124.401 96.6524 124.318 91.7831C124.293 90.5658 124.266 89.3102 124.237 88.0163C124.2 86.7213 124.162 85.3922 124.054 84.029C123.991 82.6179 124.202 81.208 124.675 79.8771C125.148 78.4809 125.773 77.1407 126.538 75.8804V75.9022C127.802 70.2224 129.184 64.0241 130.646 57.45L130.718 57.5432C127.534 57.3716 124.344 57.3633 121.159 57.5183C117.841 57.6468 114.54 58.0624 111.294 58.7605C110.433 58.9313 109.595 59.1704 108.753 59.3815C107.912 59.5927 107.089 59.8629 106.269 60.1455C104.637 60.6972 103.039 61.3421 101.481 62.077C99.9647 62.7748 98.5049 63.5888 97.1144 64.5116L92.9656 67.1202L77.6157 76.7686V76.7531C76.7257 77.9149 75.9675 79.172 75.355 80.5013C74.7585 81.7661 74.2963 83.09 73.9762 84.4513C73.2775 87.1126 73.6284 89.7305 73.6346 92.1682L73.9452 104.807C74.029 108.31 74.0942 111.068 74.1377 112.949C74.1594 113.881 74.1719 114.608 74.1843 115.098C74.1843 115.336 74.1843 115.52 74.1843 115.648C74.1998 115.772 74.1998 115.834 74.1998 115.834Z" fill="#263238"/>
<path d="M130.578 57.9283H130.724L131.15 57.9128L132.798 57.8724L138.913 57.7544L159.527 57.4004H159.567L159.592 57.4314L162.48 60.9685C165.405 64.5614 168.194 67.9773 170.728 71.0827L171.659 72.2317C171.961 72.6168 172.22 73.0332 172.433 73.4739C172.817 74.291 173.026 75.1797 173.046 76.0826C173.066 76.9855 172.896 77.8826 172.547 78.7157L171.616 80.8895L168.765 87.4854L167.982 89.2741L167.774 89.7399C167.728 89.8423 167.7 89.8951 167.7 89.8951C167.7 89.8951 167.719 89.8392 167.759 89.7337C167.799 89.6281 167.871 89.4635 167.951 89.2616C168.128 88.8455 168.38 88.2369 168.706 87.4605L171.501 80.846C172.035 79.4424 172.976 77.9642 172.911 76.1631C172.897 75.2477 172.685 74.3462 172.29 73.5204C172.081 73.0916 171.827 72.6866 171.532 72.3124L170.6 71.1635L162.343 61.0585L159.458 57.5215L159.52 57.5526L138.904 57.8631L132.789 57.9345H131.14H130.718L130.578 57.9283Z" fill="#263238"/>
<path d="M120.161 85.3425C120.161 85.3425 120.247 85.3425 120.406 85.3053C120.639 85.2639 120.861 85.1751 121.058 85.0444C121.371 84.8403 121.605 84.5359 121.723 84.1811C121.794 83.9608 121.823 83.7291 121.81 83.4979C121.802 83.2402 121.736 82.9875 121.617 82.7589C121.478 82.4987 121.272 82.2805 121.02 82.127C120.769 81.9736 120.48 81.8904 120.185 81.8862H118.092H113.295C112.889 81.8869 112.499 82.0399 112.201 82.3148C111.911 82.5793 111.726 82.9399 111.68 83.3303C111.633 83.7074 111.702 84.0899 111.878 84.4265C112.059 84.7426 112.338 84.9903 112.673 85.1314C113.006 85.2452 113.358 85.2886 113.708 85.2587H114.723H116.549L119.192 85.2835L119.909 85.2991C119.993 85.2973 120.077 85.3035 120.161 85.3177C120.077 85.3275 119.993 85.3327 119.909 85.3332H119.192L116.549 85.3581H114.723H113.708C113.531 85.3581 113.36 85.3581 113.17 85.3581C112.98 85.3464 112.794 85.3034 112.618 85.2307C112.249 85.0795 111.942 84.8095 111.745 84.4637C111.548 84.1004 111.471 83.6841 111.524 83.2744C111.573 82.8387 111.781 82.4362 112.107 82.1436C112.433 81.8509 112.856 81.6886 113.295 81.6875H118.092H120.188C120.505 81.6942 120.815 81.7863 121.084 81.9541C121.352 82.1219 121.571 82.3591 121.716 82.6409C121.841 82.8855 121.908 83.1552 121.912 83.4296C121.922 83.672 121.887 83.9141 121.81 84.1439C121.678 84.5128 121.425 84.8261 121.092 85.032C120.887 85.1626 120.654 85.2444 120.412 85.2711C120.331 85.3048 120.247 85.3288 120.161 85.3425Z" fill="#263238"/>
<path d="M166.12 85.3425C166.12 85.3425 166.206 85.3425 166.365 85.3053C166.598 85.2639 166.82 85.1751 167.017 85.0444C167.33 84.8403 167.564 84.5359 167.682 84.1811C167.753 83.9608 167.782 83.7291 167.768 83.4979C167.761 83.2402 167.695 82.9875 167.576 82.7589C167.437 82.4987 167.231 82.2805 166.979 82.127C166.728 81.9736 166.439 81.8904 166.144 81.8862H164.051H159.254C158.848 81.8869 158.458 82.0399 158.16 82.3148C157.87 82.5793 157.685 82.9399 157.639 83.3303C157.592 83.7074 157.661 84.0899 157.837 84.4265C158.018 84.7426 158.297 84.9903 158.632 85.1314C158.965 85.2452 159.317 85.2886 159.667 85.2587H160.682H162.508L165.151 85.2835L165.868 85.2991C165.952 85.2973 166.036 85.3035 166.12 85.3177C166.036 85.3275 165.952 85.3327 165.868 85.3332H165.151L162.508 85.3581H160.682H159.667C159.49 85.3581 159.319 85.3581 159.129 85.3581C158.939 85.3464 158.753 85.3034 158.577 85.2307C158.208 85.0795 157.901 84.8095 157.704 84.4637C157.507 84.1004 157.43 83.6841 157.483 83.2744C157.532 82.8387 157.74 82.4362 158.066 82.1436C158.392 81.8509 158.815 81.6886 159.254 81.6875H164.051H166.147C166.464 81.6942 166.774 81.7863 167.043 81.9541C167.311 82.1219 167.53 82.3591 167.675 82.6409C167.8 82.8855 167.867 83.1552 167.871 83.4296C167.881 83.672 167.846 83.9141 167.768 84.1439C167.637 84.5128 167.384 84.8261 167.051 85.032C166.846 85.1626 166.613 85.2444 166.371 85.2711C166.29 85.3048 166.206 85.3288 166.12 85.3425Z" fill="#263238"/>
<path d="M206.393 77.8457H197.201C196.584 77.8455 195.977 78.0141 195.448 78.3331C194.919 78.6522 194.487 79.1096 194.199 79.6561C193.962 80.1083 193.83 80.6081 193.812 81.1183C193.795 81.6285 193.893 82.136 194.099 82.6032L197.701 90.7921L206.906 90.702C206.906 90.702 208.865 80.3207 206.393 77.8457Z" fill="#FAFAFA"/>
<path d="M78.7344 76.6873L126.163 75.8115L157.03 75.2464L167.21 69.3679C167.403 69.2552 167.571 69.1027 167.701 68.9204C167.831 68.7382 167.921 68.5303 167.965 68.3107C168.008 68.0911 168.005 67.8647 167.955 67.6465C167.904 67.4283 167.808 67.2233 167.673 67.045L161.335 58.7195C161.009 58.2908 160.589 57.9425 160.108 57.7014C159.627 57.4602 159.097 57.3326 158.558 57.3283L124.033 57.0488C124.033 57.0488 111.033 56.2911 100.789 62.0174C90.0162 68.0636 78.7344 76.6873 78.7344 76.6873Z" fill="#263238"/>
<path d="M100.467 57.9102C100.467 57.9102 102.846 58.9939 101.3 59.997C99.7532 61 75.7237 76.145 75.7237 76.145L70.1992 73.6451C79.9843 68.2014 89.8656 62.9067 100.467 57.9102Z" fill="#455A64"/>
<path d="M76.5004 76.5293L76.3514 76.5666L75.9135 76.6628L74.2273 77.0106C72.7615 77.3025 70.6375 77.7124 68.0165 78.1658C62.7374 79.0726 55.4335 80.1284 47.3067 80.8303C45.2727 81.0073 43.2697 81.1408 41.3692 81.2774C39.4687 81.4141 37.5993 81.5228 35.8416 81.6811C32.3232 81.9917 29.1744 82.5009 26.6155 83.2618C24.5817 83.8273 22.6243 84.6386 20.7867 85.6778C20.1253 86.0256 19.6533 86.3672 19.321 86.5721L18.9421 86.8112L18.8086 86.8889C18.8484 86.8567 18.8899 86.8267 18.9328 86.7988L19.3024 86.5442C19.6315 86.3299 20.0973 85.979 20.7557 85.6125C22.5821 84.545 24.5351 83.7104 26.569 83.1282C29.134 82.3488 32.2922 81.824 35.8137 81.5103C37.5744 81.3426 39.4252 81.2246 41.3444 81.0973C43.2635 80.97 45.2478 80.8209 47.2788 80.6439C55.4024 79.9421 62.7156 78.9049 67.9855 78.0261C70.6219 77.5882 72.746 77.197 74.2149 76.9237L75.9073 76.6131L76.3483 76.5324L76.5004 76.5293Z" fill="#263238"/>
<path d="M210.067 97.7682C210.067 97.8148 206.906 97.849 203.009 97.849C199.112 97.849 195.947 97.8148 195.947 97.7682C195.947 97.7217 199.109 97.6875 203.009 97.6875C206.909 97.6875 210.067 97.7248 210.067 97.7682Z" fill="#263238"/>
<path d="M152.235 105.835C152.235 105.881 134.392 105.915 112.384 105.915C90.3759 105.915 72.5293 105.881 72.5293 105.835C72.5293 105.788 90.3697 105.754 112.384 105.754C134.398 105.754 152.235 105.791 152.235 105.835Z" fill="#263238"/>
<path d="M27.3077 98.0339C27.3077 98.0804 24.783 98.1146 21.6714 98.1146C18.5598 98.1146 16.0352 98.0804 16.0352 98.0339C16.0352 97.9873 18.5598 97.9531 21.6714 97.9531C24.783 97.9531 27.3077 97.9904 27.3077 98.0339Z" fill="#263238"/>
<path d="M191.356 63.3848C191.356 63.3848 189.238 65.7542 190.071 67.4932C190.903 69.2322 199.508 75.325 199.508 75.325L205.753 76.4957L191.356 63.3848Z" fill="#455A64"/>
<path d="M131.982 59.1387L130.578 74.3054L155.707 73.588L165.834 67.7002L159.278 59.1387H131.982Z" fill="#455A64"/>
<path d="M84.6836 75.0813C84.6836 75.0813 99.8441 64.1317 105.825 61.9548C111.598 59.8556 114.607 59.3277 120.029 59.16C125.212 59.0109 128.37 59.16 128.37 59.16L124.364 74.5782L84.6836 75.0813Z" fill="#455A64"/>
<path d="M82.4668 75.12C82.4671 74.6485 82.5925 74.1856 82.8304 73.7785C83.0683 73.3715 83.4101 73.035 83.8207 72.8034L87.305 70.847C88.2975 70.2883 89.4174 69.9952 90.5563 69.9961C91.2577 69.997 91.9545 70.1081 92.6214 70.3253C93.3474 70.5764 93.9795 71.043 94.4334 71.6628C94.8872 72.2826 95.1413 73.0261 95.1616 73.794C95.1813 74.3098 95.0966 74.8242 94.9127 75.3065C94.7287 75.7888 94.4494 76.229 94.0913 76.6007C93.7332 76.9724 93.3037 77.268 92.8286 77.4698C92.3535 77.6716 91.8426 77.7755 91.3265 77.7751H85.1157C84.4126 77.7734 83.7388 77.493 83.2423 76.9952C82.7457 76.4975 82.4668 75.8231 82.4668 75.12Z" fill="#54DF6C"/>
<path d="M82.4671 75.1199C82.4671 75.1199 82.4671 75.2379 82.5074 75.4553C82.5543 75.7751 82.6596 76.0835 82.818 76.3652C83.0689 76.8089 83.4389 77.1735 83.8862 77.4179C84.1652 77.5639 84.4681 77.6586 84.7806 77.6974C85.1371 77.7237 85.4947 77.731 85.8519 77.7191L91.1652 77.7005C91.6689 77.7139 92.1704 77.6317 92.6434 77.4583C93.1425 77.2716 93.5965 76.9814 93.9754 76.6067C94.3543 76.2321 94.6497 75.7815 94.842 75.2845C95.0376 74.7602 95.1171 74.1997 95.0749 73.6418C95.0333 73.0918 94.8713 72.5578 94.6002 72.0775C94.3292 71.5972 93.9559 71.1824 93.5067 70.8624C93.0731 70.5627 92.5844 70.3516 92.0689 70.2414C90.6528 69.9065 89.1657 70.0495 87.8394 70.6482C87.4388 70.8283 87.0723 71.055 86.709 71.2506L85.6718 71.8282L83.8862 72.8157C83.437 73.0575 83.0663 73.4228 82.818 73.8685C82.6613 74.1509 82.5562 74.459 82.5074 74.7783C82.4764 74.9957 82.4795 75.1137 82.4702 75.1137C82.4585 75.0002 82.4585 74.8857 82.4702 74.7721C82.5051 74.4462 82.602 74.13 82.7559 73.8405C83 73.3767 83.3746 72.9945 83.8334 72.7412L85.6066 71.7319L86.6376 71.145C86.9978 70.9463 87.3643 70.7165 87.7742 70.524C89.1254 69.9019 90.6457 69.7489 92.0938 70.0892C92.6278 70.1954 93.1356 70.4065 93.5874 70.7103C94.057 71.0429 94.4474 71.4751 94.7308 71.9759C95.0142 72.4767 95.1836 73.0338 95.2271 73.6076C95.2726 74.1898 95.1899 74.7749 94.9849 75.3218C94.7844 75.8409 94.4759 76.3116 94.0797 76.7024C93.6835 77.0932 93.2087 77.3953 92.6869 77.5887C92.1964 77.7654 91.6771 77.8486 91.1559 77.834L85.8426 77.8185C85.481 77.8263 85.1192 77.8148 84.7588 77.7843C84.4319 77.739 84.116 77.6337 83.8272 77.4738C83.3696 77.2178 82.9947 76.8364 82.7465 76.3745C82.5948 76.0844 82.4989 75.7684 82.464 75.4429C82.4564 75.3353 82.4575 75.2273 82.4671 75.1199Z" fill="#263238"/>
<path d="M199.266 115.589C199.266 115.589 199.266 115.518 199.266 115.375C199.266 115.232 199.291 115.018 199.31 114.754C199.328 114.49 199.359 114.133 199.378 113.729C199.397 113.326 199.409 112.854 199.425 112.329C199.44 111.804 199.425 111.214 199.425 110.574C199.425 109.934 199.378 109.236 199.291 108.49C199.15 106.801 198.85 105.129 198.394 103.497C198.125 102.545 197.794 101.611 197.403 100.702C196.988 99.7202 196.487 98.7767 195.906 97.8825C194.612 95.9111 192.966 94.1952 191.049 92.8207C188.94 91.2893 186.586 90.1279 184.087 89.3862C181.497 88.5943 178.678 88.3055 175.808 88.2837C173.009 88.2581 170.223 88.6635 167.548 89.4855C166.281 89.8857 165.051 90.3938 163.871 91.0041C162.746 91.6018 161.678 92.3003 160.679 93.0909C158.822 94.5453 157.168 96.2414 155.76 98.134C155.141 99.0026 154.595 99.9208 154.126 100.879C153.699 101.767 153.322 102.679 152.996 103.609C152.004 106.412 151.4 109.337 151.201 112.304C151.151 113.357 151.158 114.167 151.186 114.732C151.201 115.006 151.214 115.214 151.22 115.353C151.226 115.493 151.22 115.568 151.22 115.568C151.22 115.568 151.22 115.496 151.195 115.353C151.17 115.211 151.164 114.996 151.142 114.732C151.101 113.922 151.101 113.111 151.142 112.301C151.314 109.318 151.902 106.373 152.89 103.553C153.217 102.619 153.592 101.702 154.015 100.808C154.487 99.8423 155.035 98.9161 155.654 98.0378C157.066 96.1329 158.726 94.4245 160.589 92.9573C161.594 92.1606 162.668 91.4559 163.8 90.8519C164.988 90.2367 166.226 89.7245 167.501 89.3209C170.192 88.4892 172.995 88.0796 175.811 88.1067C178.693 88.1285 181.525 88.4173 184.137 89.2185C186.652 89.9672 189.021 91.1392 191.143 92.6841C192.125 93.4072 193.043 94.2134 193.888 95.0939C194.69 95.9199 195.405 96.8263 196.021 97.7986C196.604 98.701 197.105 99.6529 197.521 100.643C197.911 101.552 198.24 102.485 198.505 103.438C198.959 105.079 199.253 106.759 199.384 108.456C199.468 109.202 199.468 109.9 199.502 110.543C199.536 111.186 199.502 111.785 199.502 112.301C199.502 112.816 199.456 113.298 199.437 113.704C199.418 114.111 199.378 114.45 199.353 114.729C199.328 115.009 199.31 115.211 199.297 115.35C199.285 115.49 199.266 115.589 199.266 115.589Z" fill="white"/>
<path d="M123.628 76.6875H123.417L122.607 76.7061L119.629 76.7589C117.113 76.8055 113.641 76.8987 109.803 77.0043C105.965 77.1098 102.49 77.1813 99.9747 77.1999C98.717 77.1999 97.6984 77.1999 96.9935 77.1999H96.183H95.9749C95.9503 77.2046 95.925 77.2046 95.9004 77.1999C95.9251 77.1959 95.9502 77.1959 95.9749 77.1999H96.183L96.9935 77.1813L99.9715 77.1285C102.487 77.0819 105.962 76.9887 109.8 76.8862C113.638 76.7838 117.113 76.7061 119.629 76.6875C120.871 76.6875 121.905 76.6875 122.607 76.6875H123.417H123.628Z" fill="white"/>
<path d="M119.581 81.356C118.677 81.4379 117.769 81.4648 116.861 81.4368C115.953 81.4648 115.045 81.4379 114.141 81.356C115.045 81.2761 115.953 81.2491 116.861 81.2753C117.769 81.2491 118.677 81.2761 119.581 81.356Z" fill="white"/>
<path d="M120.582 64.7392C120.597 64.7795 117.222 66.1863 113.039 67.8787C108.856 69.5711 105.452 70.9127 105.434 70.8692C105.415 70.8257 108.794 69.4221 112.977 67.7297C117.16 66.0372 120.563 64.6988 120.582 64.7392Z" fill="white"/>
<path d="M113.738 65.8039C113.757 65.8474 110.54 67.2634 106.555 68.9683C102.571 70.6731 99.3293 72.024 99.3106 71.9836C99.292 71.9432 102.509 70.5272 106.493 68.8192C110.478 67.1113 113.72 65.7573 113.738 65.8039Z" fill="white"/>
<path d="M157.138 64.1514C157.157 64.1918 153.778 65.5985 149.595 67.291C145.412 68.9834 142.009 70.3218 141.99 70.2814C141.972 70.2411 145.35 68.8343 149.536 67.1419C153.722 65.4495 157.114 64.1079 157.138 64.1514Z" fill="white"/>
<path d="M150.281 65.2094C150.3 65.2529 147.083 66.6689 143.102 68.3738C139.12 70.0787 135.872 71.4295 135.854 71.3891C135.835 71.3488 139.052 69.9327 143.036 68.2247C147.021 66.5168 150.281 65.1815 150.281 65.2094Z" fill="white"/>
<path d="M157.799 76.6733C157.799 76.7168 151.082 76.7944 142.797 76.8441C134.512 76.8938 127.795 76.8969 127.795 76.8441C127.795 76.7913 134.509 76.723 142.797 76.6764C151.085 76.6298 157.799 76.6391 157.799 76.6733Z" fill="white"/>
<path d="M165.238 81.0974C165.238 81.1409 163.356 81.1937 161.03 81.2154C158.704 81.2372 156.822 81.2154 156.822 81.1751C156.822 81.1347 158.704 81.0757 161.03 81.054C163.356 81.0322 165.238 81.0509 165.238 81.0974Z" fill="white"/>
<path d="M36.6252 78.7988C36.5659 78.8189 36.5044 78.8314 36.442 78.8361L35.9172 78.9044C35.6874 78.9293 35.4079 78.9634 35.0849 79.0193C34.762 79.0752 34.3924 79.1156 33.9887 79.1963C33.1782 79.3392 32.2186 79.5503 31.169 79.8174C30.032 80.1311 28.9116 80.5022 27.8121 80.9291C26.6445 81.3918 25.5607 81.898 24.5918 82.398C23.6229 82.8979 22.7845 83.401 22.1075 83.8513C21.7566 84.0656 21.4523 84.2829 21.1759 84.4724C20.8995 84.6618 20.6728 84.8171 20.4865 84.9537L20.0549 85.2642C20.0054 85.3024 19.9524 85.3357 19.8965 85.3636C19.9376 85.3176 19.9834 85.276 20.0331 85.2394L20.4492 84.9071C20.6294 84.7643 20.8529 84.5966 21.1231 84.4009C21.3933 84.2053 21.6883 83.9879 22.0547 83.7799C22.7379 83.3172 23.5826 82.811 24.539 82.2924C26.633 81.173 28.8508 80.3027 31.1473 79.6994C32.2031 79.4261 33.1689 79.2243 33.9856 79.0969C34.3924 79.0224 34.762 78.9851 35.088 78.9417C35.4141 78.8982 35.7091 78.8702 35.9234 78.8547L36.4544 78.8144C36.5109 78.8051 36.568 78.8 36.6252 78.7988Z" fill="white"/>
<path d="M92.0816 71.4737C92.0816 71.4737 91.9916 71.3526 91.7711 71.1849C91.4733 70.9568 91.119 70.8141 90.7463 70.7719C90.1873 70.7252 89.6246 70.7853 89.088 70.9489C87.1972 71.4251 85.441 72.3292 83.9548 73.5916C83.2157 74.2126 82.8245 74.6691 82.8027 74.6474C82.8779 74.5288 82.9653 74.4185 83.0636 74.3182C83.3203 74.033 83.5919 73.7614 83.8772 73.5046C84.8258 72.6596 85.9036 71.9719 87.0695 71.4675C87.7096 71.1873 88.3737 70.9659 89.0539 70.806C89.6079 70.6448 90.1882 70.5942 90.7618 70.657C91.1515 70.7104 91.5167 70.8778 91.8114 71.1383C91.8898 71.2086 91.9596 71.2878 92.0195 71.3743C92.0692 71.4364 92.0878 71.4706 92.0816 71.4737Z" fill="white"/>
<path d="M192.062 63.2723C191.629 63.377 191.185 63.4229 190.739 63.409C190.217 63.3933 189.697 63.3289 189.187 63.2164C188.513 63.058 187.852 62.8504 187.209 62.5954C186.491 62.3252 185.727 61.9743 184.901 61.6296L183.613 61.111C183.168 60.934 182.7 60.7818 182.228 60.6079C180.155 59.906 178.041 59.3304 175.899 58.8844C172.004 58.0736 168.049 57.5834 164.073 57.4187C163.31 57.3783 162.62 57.3783 162.012 57.3628H160.459L159.478 57.3845H159.133C159.162 57.3791 159.191 57.3791 159.22 57.3845L159.474 57.3659L160.459 57.3131L162.012 57.2852C162.633 57.2852 163.31 57.2852 164.073 57.3224C168.06 57.4525 172.027 57.9305 175.93 58.7509C178.077 59.192 180.194 59.7686 182.268 60.4775C182.74 60.6514 183.2 60.8067 183.656 60.9868L184.945 61.5178C185.771 61.8749 186.532 62.2227 187.243 62.4991C187.877 62.7549 188.53 62.9625 189.196 63.1202C189.699 63.2408 190.213 63.3136 190.73 63.3375C191.057 63.3488 191.383 63.3374 191.708 63.3034L191.96 63.2723H192.062Z" fill="#263238"/>
<path d="M42.6531 63.7017C41.411 56.9072 40.5756 55.8638 39.8738 53.5254C39.172 51.187 38.0571 49.6685 36.669 49.1313C35.7374 48.7711 31.0576 47.0848 29.4304 47.6438C27.8383 48.2098 26.3227 48.9713 24.9183 49.9107C23.8284 50.6336 23.0024 51.6906 22.5644 52.923L20.0801 59.9318L24.4525 64.2793L26.6449 59.6213L29.0236 65.211L28.6727 70.8472L42.3146 74.5178C43.5444 72.5303 43.358 67.5555 42.6531 63.7017Z" fill="#54DF6C"/>
<g opacity="0.2">
<path d="M39.1097 56.2891C38.5073 59.8261 38.411 60.3261 37.8086 63.8507C37.6005 65.0649 36.995 66.9561 36.1317 67.838C35.492 68.487 34.8647 69.1112 33.9734 69.3224C33.1474 69.518 31.8897 69.5397 31.1134 69.1981C30.337 68.8566 29.6725 67.3349 29.9923 66.5555C31.1506 66.8039 31.5077 67.1765 32.5046 66.5555C33.3741 66.0027 34.61 64.7792 35.082 63.8631C37.0726 60.0124 37.6222 59.8758 39.119 56.2891" fill="black"/>
</g>
<path d="M29.2249 63.1412C29.0043 62.8439 28.8031 62.5327 28.6225 62.2096L27.2189 59.9023L25.778 57.6322C25.5632 57.3268 25.3692 57.0073 25.1973 56.6758C25.272 56.7437 25.3377 56.821 25.3929 56.9056C25.5109 57.0577 25.6755 57.2844 25.8711 57.567C26.2686 58.1322 26.8027 58.9241 27.3555 59.8153C27.9083 60.7066 28.3896 61.5326 28.7219 62.1382C28.8896 62.4487 29.0324 62.6847 29.1069 62.8586C29.1608 62.9461 29.2006 63.0414 29.2249 63.1412Z" fill="#263238"/>
<path d="M38.7462 69.4857C38.6474 69.5371 38.5433 69.5777 38.4357 69.6068C38.3084 69.6494 38.1788 69.6846 38.0475 69.7124C37.8759 69.7589 37.7017 69.7952 37.5258 69.8211C37.0706 69.9021 36.6094 69.9447 36.147 69.9484C35.5797 69.9494 35.0134 69.9006 34.4546 69.8025C33.8964 69.6973 33.3487 69.5425 32.8181 69.3398C32.3887 69.1721 31.9734 68.9706 31.5759 68.7373C31.402 68.641 31.2654 68.5355 31.1287 68.4516C31.0157 68.3781 30.9068 68.2982 30.8027 68.2125C30.708 68.1475 30.6215 68.0714 30.5449 67.9858C30.5636 67.961 30.9486 68.2622 31.6318 68.6379C32.0323 68.8539 32.4474 69.0417 32.874 69.2C33.9223 69.5908 35.0313 69.7937 36.1501 69.7994C36.6061 69.7999 37.0615 69.7698 37.5134 69.7093C38.2711 69.6006 38.7369 69.4547 38.7462 69.4857Z" fill="#263238"/>
<path d="M33.2719 58.9006C33.247 59.0217 31.7813 61.9408 31.7813 61.9408L24.8625 58.295L24.1576 55.3139C24.0412 54.8352 23.74 54.422 23.3198 54.1648C22.8997 53.9075 22.3947 53.8272 21.9155 53.9413L19.8752 54.7766C19.7911 54.8095 19.7164 54.8628 19.6579 54.9316C19.5994 55.0004 19.5588 55.0827 19.5398 55.171C19.5119 55.3201 19.5398 55.4816 19.81 55.4474C20.3162 55.407 21.3627 55.2952 21.3627 55.2952L20.8814 56.9939C20.7543 57.439 20.8032 57.916 21.018 58.3261L21.3285 58.913L22.0024 60.003H21.9869C21.9869 60.003 28.7132 66.9125 32.4893 67.3628C34.7593 67.6329 37.3306 61.27 37.3306 61.27L33.2719 58.9006Z" fill="#B78876"/>
<path d="M21.3125 55.4102C21.3125 55.4102 21.3653 55.3388 21.4802 55.2611C21.6341 55.154 21.8175 55.0975 22.005 55.0997C22.1029 55.1052 22.1975 55.1369 22.2789 55.1915C22.3603 55.2462 22.4255 55.3217 22.4677 55.4102C22.5329 55.5499 22.4894 55.6431 22.4677 55.6369C22.446 55.6307 22.4677 55.5499 22.3932 55.4444C22.3474 55.3773 22.287 55.3215 22.2165 55.2812C22.1461 55.2409 22.0674 55.217 21.9864 55.2115C21.8183 55.2138 21.6533 55.2564 21.505 55.3357C21.4088 55.3823 21.3218 55.4226 21.3125 55.4102Z" fill="#AA6550"/>
<path d="M22.1843 56.467C22.1843 56.467 22.1378 56.4111 22.0726 56.3272C21.9892 56.2202 21.8787 56.1376 21.7525 56.0879C21.6263 56.0381 21.4891 56.0232 21.3552 56.0446C21.2496 56.0446 21.1844 56.0819 21.1782 56.0695C21.172 56.057 21.2279 56.0105 21.3397 55.9732C21.4874 55.9301 21.6453 55.9371 21.7886 55.9933C21.9319 56.0495 22.0525 56.1517 22.1316 56.2837C22.1875 56.3893 22.1937 56.4638 22.1843 56.467Z" fill="#AA6550"/>
<path d="M34.707 49.687L32.8438 58.5653L37.8124 61.5496L39.7191 56.0934C39.7191 56.0934 38.9179 49.4665 34.707 49.687Z" fill="#54DF6C"/>
<path d="M37.3838 49.8418C37.3838 49.8418 37.3435 49.876 37.2565 49.9225C37.1696 49.9691 37.0454 50.0374 36.8808 50.1213C36.5516 50.289 36.0672 50.525 35.4616 50.7951C33.8873 51.5148 32.2299 52.0363 30.5271 52.3478C28.8137 52.654 27.0549 52.5948 25.366 52.1739C24.8605 52.0411 24.3679 51.8634 23.894 51.6429C23.7233 51.5715 23.5835 51.4939 23.5121 51.4504C23.4675 51.4281 23.4249 51.4022 23.3848 51.3727C23.5666 51.4343 23.7449 51.5058 23.9189 51.587C24.4015 51.782 24.8976 51.9418 25.4033 52.0652C27.0794 52.449 28.8157 52.4912 30.5085 52.1895C32.1998 51.8781 33.8502 51.3749 35.4274 50.6896C36.0485 50.4349 36.5236 50.2144 36.8621 50.0685C37.0308 49.9815 37.2051 49.9057 37.3838 49.8418Z" fill="#EBEBEB"/>
<path d="M38.6912 50.8223C38.6486 50.8607 38.6017 50.8941 38.5514 50.9216L38.1415 51.1856C37.9248 51.3275 37.7009 51.4581 37.4707 51.5769C37.2037 51.7166 36.9056 51.8874 36.5547 52.0427L36.0143 52.2911C35.8249 52.3781 35.6199 52.4495 35.4119 52.5333C34.9989 52.7041 34.5393 52.8439 34.061 52.9991C31.9643 53.6315 29.7728 53.8912 27.5863 53.7662C27.0832 53.7258 26.605 53.6979 26.164 53.6264C25.9405 53.5923 25.7262 53.5705 25.5212 53.5333L24.9343 53.4153C24.5617 53.3501 24.2294 53.2507 23.9375 53.1761C23.6864 53.1155 23.4387 53.0419 23.1953 52.9557L22.7326 52.7942C22.6772 52.7794 22.6239 52.7575 22.5742 52.729C22.6315 52.7321 22.688 52.7436 22.7419 52.7631L23.2139 52.8936C23.4158 52.9557 23.6642 53.0271 23.9592 53.0892C24.2542 53.1513 24.5803 53.2476 24.9592 53.3035L25.543 53.4091C25.7448 53.4463 25.9591 53.4649 26.164 53.4929C26.605 53.5581 27.0957 53.583 27.577 53.6171C29.7473 53.7274 31.9206 53.4702 34.0051 52.8563C34.4803 52.7072 34.9368 52.5737 35.3498 52.406C35.5547 52.3253 35.7597 52.257 35.9491 52.1762L36.4926 51.9371C36.8435 51.7943 37.1416 51.6266 37.4242 51.4961C37.7068 51.3657 37.9241 51.2384 38.1042 51.1328L38.5328 50.8968C38.582 50.865 38.6353 50.8399 38.6912 50.8223Z" fill="#EBEBEB"/>
<path d="M37.7991 61.5496C37.6599 61.4908 37.525 61.4223 37.3954 61.3447L36.3023 60.7236L32.5759 58.5716L32.5293 58.5436V58.4908C32.6628 57.8294 32.8057 57.1151 32.9547 56.3823C33.1783 55.2767 33.3957 54.2271 33.5758 53.2769C33.6783 52.7986 33.7621 52.3453 33.8553 51.9136C33.9396 51.5146 34.0731 51.1276 34.2528 50.7615C34.5131 50.2178 34.9739 49.796 35.5384 49.5846C35.6912 49.5319 35.8519 49.5057 36.0135 49.5069C36.0691 49.5031 36.1248 49.5094 36.1781 49.5256C35.9663 49.5327 35.7568 49.5725 35.557 49.6436C35.0236 49.8686 34.5938 50.2851 34.3522 50.8112C34.1843 51.1729 34.0602 51.5535 33.9826 51.9447C33.8988 52.3701 33.8118 52.8266 33.7187 53.3017C33.5261 54.2644 33.315 55.314 33.0976 56.4071C32.9485 57.1431 32.8026 57.8542 32.669 58.5157L32.6318 58.4349L36.3365 60.6366L37.4079 61.2888C37.5453 61.3646 37.6762 61.4519 37.7991 61.5496Z" fill="#263238"/>
<path d="M39.3179 55.8281C39.3453 56.1044 39.337 56.3831 39.2931 56.6573C39.2281 57.3209 39.1097 57.9783 38.9391 58.623C38.7686 59.2684 38.5485 59.8996 38.2808 60.511C38.1836 60.7711 38.0531 61.0174 37.8926 61.2439C37.9686 60.9789 38.063 60.7195 38.1752 60.4676C38.6465 59.232 38.9839 57.9494 39.1813 56.6417C39.2096 56.3679 39.2552 56.0962 39.3179 55.8281Z" fill="#263238"/>
<path d="M12.3779 105.213L12.322 109.952C12.322 109.952 7.48379 111.489 7.39062 112.365L16.5764 112.799L16.9676 105.418L12.3779 105.213Z" fill="#455A64"/>
<path d="M15.1983 109.688C15.2855 109.719 15.3581 109.782 15.4022 109.863C15.4464 109.944 15.4589 110.039 15.4374 110.129C15.4101 110.218 15.3496 110.292 15.2686 110.337C15.1876 110.383 15.0924 110.395 15.0027 110.371C14.9106 110.338 14.8342 110.271 14.7878 110.185C14.7415 110.098 14.7284 109.998 14.7512 109.902C14.7902 109.814 14.8621 109.743 14.9518 109.706C15.0415 109.669 15.1421 109.668 15.2325 109.704" fill="#E0E0E0"/>
<path d="M16.5771 112.801V112.056L7.764 111.916C7.764 111.916 7.34477 112.074 7.37893 112.366L16.5771 112.801Z" fill="#E0E0E0"/>
<path d="M12.176 109.899C12.176 109.942 12.3996 109.973 12.6108 110.129C12.8219 110.284 12.9213 110.477 12.9772 110.461C13.0331 110.445 12.9772 110.185 12.7008 110.001C12.4245 109.818 12.1667 109.855 12.176 109.899Z" fill="#263238"/>
<path d="M11.1914 110.249C11.1914 110.293 11.3715 110.38 11.5019 110.575C11.6324 110.771 11.679 110.976 11.7255 110.976C11.7721 110.976 11.8094 110.724 11.6262 110.482C11.4429 110.24 11.1945 110.209 11.1914 110.249Z" fill="#263238"/>
<path d="M10.5889 111.379C10.6293 111.379 10.7038 111.17 10.5889 110.919C10.474 110.667 10.2784 110.562 10.2597 110.608C10.2411 110.655 10.3622 110.782 10.443 110.99C10.5237 111.198 10.5392 111.372 10.5889 111.379Z" fill="#263238"/>
<path d="M12.3078 108.819C12.3264 108.862 12.5344 108.819 12.7891 108.838C13.0437 108.856 13.2332 108.959 13.258 108.922C13.2828 108.884 13.1027 108.713 12.8046 108.682C12.5065 108.651 12.2891 108.785 12.3078 108.819Z" fill="#263238"/>
<g opacity="0.3">
<path d="M12.3698 106.152L12.3574 106.997L16.8758 107.171L16.9161 106.41L12.3698 106.152Z" fill="black"/>
</g>
<path d="M12.3379 107.864C12.4862 107.913 12.6452 107.921 12.7975 107.885C12.9647 107.864 13.1286 107.821 13.285 107.758C13.3785 107.723 13.4689 107.681 13.5552 107.631C13.6089 107.606 13.6581 107.572 13.7012 107.531C13.7323 107.501 13.7523 107.461 13.7579 107.417C13.7635 107.374 13.7545 107.33 13.7322 107.292C13.7108 107.26 13.6824 107.233 13.649 107.214C13.6156 107.195 13.5782 107.183 13.5397 107.181C13.4813 107.177 13.4227 107.183 13.3658 107.196C13.2671 107.215 13.1705 107.243 13.077 107.28C12.9189 107.343 12.7713 107.43 12.6391 107.538C12.4155 107.727 12.3286 107.892 12.3503 107.901C12.3721 107.91 12.4807 107.78 12.7043 107.628C12.8358 107.54 12.9777 107.469 13.1267 107.417C13.2138 107.387 13.3031 107.364 13.3937 107.348C13.4931 107.326 13.5769 107.33 13.5987 107.373C13.6204 107.417 13.5987 107.398 13.5987 107.426C13.5665 107.455 13.5311 107.48 13.4931 107.5C13.4092 107.547 13.3254 107.59 13.2447 107.628C13.0983 107.691 12.9466 107.741 12.7913 107.777C12.6384 107.796 12.487 107.825 12.3379 107.864Z" fill="#263238"/>
<path d="M12.4044 107.932C12.4967 107.805 12.5457 107.652 12.5441 107.494C12.5613 107.325 12.5487 107.153 12.5068 106.988C12.4818 106.89 12.4464 106.794 12.4012 106.703C12.3794 106.641 12.3419 106.586 12.2924 106.543C12.2428 106.5 12.183 106.47 12.1187 106.457C12.0781 106.456 12.038 106.466 12.0032 106.487C11.9684 106.508 11.9406 106.539 11.923 106.575C11.8956 106.628 11.8767 106.684 11.8671 106.743C11.8516 106.846 11.8516 106.95 11.8671 107.053C11.8841 107.227 11.9439 107.393 12.041 107.538C12.2087 107.786 12.395 107.848 12.3981 107.833C12.4012 107.817 12.2615 107.718 12.1342 107.482C12.0613 107.347 12.019 107.197 12.01 107.044C12.005 106.955 12.0123 106.865 12.0317 106.777C12.0503 106.681 12.0907 106.603 12.128 106.616C12.1652 106.628 12.246 106.693 12.2801 106.774C12.3222 106.855 12.3565 106.941 12.3826 107.029C12.4272 107.179 12.4502 107.335 12.4509 107.491C12.4261 107.758 12.3702 107.923 12.4044 107.932Z" fill="#263238"/>
<path d="M31.1033 70.8954C31.1033 70.8954 16.7502 64.871 12.3095 64.6195C9.51465 64.458 7.41541 66.2467 7.79427 69.1285C7.9837 70.5725 11.9493 87.4502 11.9493 87.4502L17.9924 84.6927L15.0857 73.0195L26.8862 78.7521L31.1033 70.8954Z" fill="#263238"/>
<path d="M13.2825 70.0662C13.2359 70.1066 13.711 70.7183 14.2141 71.5288C14.7171 72.3393 15.0525 73.038 15.1084 73.0163C15.1643 72.9946 14.9066 72.2462 14.3942 71.4201C13.8818 70.5941 13.3353 70.0289 13.2825 70.0662Z" fill="#455A64"/>
<path d="M12.1084 70.7386C12.0773 70.7914 12.8009 71.251 13.6611 71.8783C14.5213 72.5055 15.1672 73.0552 15.2138 73.0117C15.2604 72.9682 14.6393 72.3254 13.776 71.7044C12.9127 71.0833 12.1332 70.6889 12.1084 70.7386Z" fill="#455A64"/>
<path d="M42.2992 74.5174C42.2992 74.5174 40.495 76.8433 38.7746 77.4799C36.6009 78.278 20.6205 85.821 20.6205 85.821C20.6205 85.821 17.7201 107.369 17.9499 106.469L11.2578 106.307L11.9845 86.4607C12.0714 83.9205 14.1086 81.0014 16.2979 79.7034L31.1043 70.8965L42.2992 74.5174Z" fill="#263238"/>
<path d="M11.857 90.0943C11.8783 90.0049 11.8877 89.913 11.885 89.8211C11.885 89.6223 11.9098 89.3646 11.9253 89.0416C11.9634 88.0862 12.0525 87.1336 12.1924 86.1878C12.3884 84.79 12.8842 83.451 13.6457 82.2626C14.1169 81.5793 14.6983 80.9791 15.3661 80.4863C16.0908 79.9583 16.8491 79.478 17.6361 79.0485C20.8564 77.2039 23.6357 75.322 25.6915 74.0333C26.7163 73.3812 27.5547 72.8626 28.1261 72.5085L28.7907 72.0986C28.8711 72.0543 28.947 72.0023 29.0174 71.9434C28.9318 71.9744 28.8496 72.0139 28.772 72.0614C28.6137 72.1452 28.3808 72.2694 28.0858 72.4371C27.4926 72.7694 26.648 73.2725 25.6014 73.906C23.5239 75.1668 20.7291 77.0269 17.5274 78.8746C16.7323 79.3091 15.9667 79.7956 15.2357 80.331C14.5511 80.8388 13.957 81.4582 13.478 82.1632C12.712 83.3826 12.2233 84.7555 12.0464 86.1847C11.9185 87.1369 11.8522 88.0964 11.8477 89.0571C11.8477 89.3677 11.8477 89.6378 11.8477 89.8397C11.8432 89.9247 11.8463 90.0099 11.857 90.0943Z" fill="#455A64"/>
<path d="M36.3918 76.7875C36.2678 76.5952 36.1308 76.4116 35.9819 76.2379C35.6734 75.7893 35.4593 75.2828 35.3525 74.749C35.2458 74.2151 35.2486 73.6652 35.3608 73.1325C35.4298 72.9139 35.4838 72.6908 35.5223 72.4648C35.3715 72.6447 35.2652 72.8574 35.2118 73.0859C35.0527 73.6373 35.0293 74.219 35.1434 74.7815C35.2549 75.3439 35.5022 75.8706 35.8639 76.3155C36.1465 76.6726 36.3794 76.8062 36.3918 76.7875Z" fill="#455A64"/>
<path d="M13.7174 106.307C13.7284 106.272 13.7347 106.236 13.7361 106.199C13.7361 106.112 13.7609 106.006 13.7764 105.873C13.8106 105.562 13.8541 105.152 13.91 104.63C14.0186 103.525 14.1739 101.951 14.3665 100.013C14.4565 99.0377 14.559 97.9694 14.677 96.8235C14.795 95.6777 14.9037 94.451 14.9875 93.1592C15.0714 91.8673 15.208 90.5165 15.444 89.1222C15.6745 87.6918 16.0921 86.2979 16.6862 84.9765C17.3065 83.6707 18.1258 82.4692 19.1146 81.4146C20.0411 80.4337 21.0557 79.5397 22.1454 78.744C24.0131 77.4287 25.9529 76.2188 27.9556 75.12C29.6543 74.1449 31.0082 73.3127 31.9057 72.6854C32.3591 72.3748 32.7006 72.1233 32.9304 71.9463L33.1882 71.7445C33.2462 71.6989 33.2741 71.6741 33.272 71.6699C33.2375 71.6839 33.2051 71.7027 33.1758 71.7258L32.9056 71.9121C32.6696 72.0767 32.3187 72.319 31.8622 72.6202C30.9492 73.2226 29.589 74.0331 27.8811 74.9927C25.862 76.0755 23.9084 77.2762 22.0305 78.5887C20.9262 79.3864 19.8991 80.2857 18.9624 81.2749C17.9559 82.3436 17.1229 83.5632 16.4936 84.8895C15.8971 86.2274 15.4794 87.638 15.2515 89.0849C15.0186 90.4823 14.9006 91.8394 14.8043 93.1219C14.708 94.4044 14.6118 95.6404 14.4938 96.7863C14.3758 97.9322 14.3012 99.0004 14.2174 99.9786C14.0528 101.919 13.9069 103.494 13.8292 104.603C13.7878 105.137 13.7568 105.551 13.7361 105.845C13.7361 105.978 13.7205 106.087 13.7143 106.171C13.7081 106.255 13.7112 106.307 13.7174 106.307Z" fill="#455A64"/>
<path d="M29.4821 36.7182C29.2567 36.1379 28.8318 35.6568 28.2838 35.3615C27.7357 35.0661 27.1003 34.9757 26.4916 35.1066C26.2238 35.2045 25.9437 35.2651 25.6593 35.2867C25.3147 35.2276 24.9759 35.1382 24.647 35.0196C24.2743 34.9592 23.8924 35.0395 23.5756 35.245C23.2588 35.4505 23.0297 35.7664 22.9328 36.1313C22.6411 36.0605 22.3375 36.054 22.043 36.1125C21.7486 36.1709 21.4705 36.2929 21.228 36.4698C20.9902 36.6539 20.8213 36.9128 20.7487 37.2046C20.676 37.4965 20.7037 37.8043 20.8274 38.0784C20.9485 38.3051 21.1379 38.4852 21.259 38.7181C21.4422 39.1001 21.3584 39.5597 21.4857 39.9603C21.6052 40.2516 21.8043 40.5034 22.0602 40.6868C22.3162 40.8702 22.6186 40.9779 22.9328 40.9975C23.5651 41.03 24.1977 40.9404 24.7961 40.7335" fill="#263238"/>
<path d="M26.592 49.0001C26.5144 48.3977 26.4647 47.9754 26.4647 47.9754C26.4647 47.9754 24.4617 47.9754 23.6699 45.491C23.2693 44.2489 23.0022 42.1745 22.8407 40.4603C22.8054 40.0952 22.8444 39.7266 22.9554 39.377C23.0664 39.0273 23.247 38.7037 23.4864 38.4257C23.7258 38.1477 24.019 37.9211 24.3483 37.7595C24.6777 37.5979 25.0363 37.5046 25.4027 37.4854L30.7191 37.209L30.834 38.0319L32.2345 48.2548C32.2852 48.6255 32.262 49.0025 32.1665 49.3642C32.0709 49.7258 31.9048 50.065 31.6777 50.3623C31.4505 50.6595 31.1669 50.909 30.843 51.0962C30.5192 51.2835 30.1615 51.4048 29.7906 51.4534C29.4194 51.5031 29.042 51.479 28.6801 51.3826C28.3182 51.2861 27.9789 51.1191 27.6818 50.8911C27.3846 50.6632 27.1353 50.3788 26.9483 50.0543C26.7613 49.7298 26.6402 49.3715 26.592 49.0001Z" fill="#B78876"/>
<path d="M23.5824 41.923C23.5955 42.0079 23.641 42.0844 23.7093 42.1366C23.7776 42.1887 23.8635 42.2123 23.9488 42.2024C23.9911 42.1998 24.0324 42.1885 24.0701 42.1694C24.1079 42.1502 24.1413 42.1235 24.1683 42.0909C24.1954 42.0583 24.2155 42.0206 24.2274 41.9799C24.2393 41.9393 24.2428 41.8967 24.2376 41.8546C24.2261 41.769 24.181 41.6915 24.1122 41.6391C24.0435 41.5867 23.9568 41.5637 23.8712 41.5752C23.8289 41.5778 23.7877 41.5891 23.7499 41.6082C23.7122 41.6274 23.6788 41.6541 23.6517 41.6867C23.6247 41.7193 23.6046 41.757 23.5926 41.7977C23.5807 41.8383 23.5772 41.8809 23.5824 41.923Z" fill="#263238"/>
<path d="M23.4464 41.4631C23.493 41.4972 23.7104 41.2768 24.0675 41.2209C24.4246 41.165 24.6886 41.3016 24.7352 41.2519C24.7817 41.2022 24.6979 41.1588 24.5737 41.0966C24.4053 41.014 24.215 40.9869 24.0302 41.019C23.8474 41.0463 23.6784 41.1324 23.5489 41.2643C23.4464 41.3637 23.4216 41.4476 23.4464 41.4631Z" fill="#263238"/>
<path d="M26.9125 41.3578C26.9255 41.4425 26.9711 41.5188 27.0396 41.5704C27.108 41.622 27.1938 41.6449 27.2789 41.6342C27.3211 41.6319 27.3624 41.621 27.4003 41.6022C27.4382 41.5834 27.4718 41.5571 27.4992 41.5248C27.5265 41.4925 27.547 41.455 27.5593 41.4145C27.5716 41.3741 27.5755 41.3315 27.5708 41.2895C27.5577 41.2046 27.5122 41.128 27.4439 41.0759C27.3756 41.0238 27.2897 41.0002 27.2044 41.01C27.1618 41.0122 27.1202 41.0232 27.0821 41.0422C27.044 41.0612 27.0102 41.0879 26.9828 41.1205C26.9555 41.1531 26.9351 41.191 26.923 41.2318C26.9109 41.2726 26.9073 41.3155 26.9125 41.3578Z" fill="#263238"/>
<path d="M26.9061 40.979C26.9527 41.0163 27.17 40.7927 27.5272 40.7399C27.8843 40.6871 28.1482 40.8175 28.1948 40.7678C28.2414 40.7181 28.1576 40.6778 28.0333 40.6126C27.8641 40.5327 27.6747 40.5056 27.4899 40.5349C27.3077 40.5643 27.1394 40.6501 27.0086 40.7802C26.9061 40.8796 26.8843 40.9604 26.9061 40.979Z" fill="#263238"/>
<path d="M26.0458 43.7854C25.8511 43.7591 25.6537 43.7591 25.4589 43.7854C25.3689 43.7854 25.2819 43.7854 25.2571 43.7263C25.2285 43.6364 25.2285 43.5399 25.2571 43.45C25.3068 43.2202 25.3595 42.978 25.4154 42.7264C25.5671 42.1091 25.6709 41.481 25.726 40.8477C25.5225 41.4555 25.3678 42.0785 25.2633 42.7109C25.2136 42.9655 25.1639 43.2078 25.1204 43.4407C25.077 43.5557 25.077 43.6827 25.1204 43.7978C25.1386 43.8272 25.163 43.8522 25.192 43.871C25.221 43.8898 25.2539 43.9019 25.2881 43.9065C25.3397 43.913 25.3918 43.913 25.4434 43.9065C25.6485 43.8917 25.851 43.851 26.0458 43.7854Z" fill="#263238"/>
<path d="M26.4648 47.9756C27.665 47.8033 28.7938 47.3013 29.7255 46.5254C29.7255 46.5254 29.1727 48.4135 26.5922 48.5718L26.4648 47.9756Z" fill="#AA6550"/>
<path d="M27.1165 43.8636C27.0575 43.8636 27.1165 44.2487 26.8371 44.5716C26.5576 44.8946 26.1414 44.9163 26.1445 44.9691C26.1477 45.0219 26.247 45.0312 26.4209 45.0064C26.6447 44.9763 26.85 44.8659 26.9985 44.6958C27.144 44.5347 27.2199 44.3226 27.2097 44.1058C27.2004 43.9443 27.1414 43.8574 27.1165 43.8636Z" fill="#263238"/>
<path d="M26.5959 39.6189C26.6456 39.709 26.9903 39.6189 27.4095 39.591C27.8287 39.563 28.1796 39.6345 28.22 39.5413C28.2604 39.4481 28.1672 39.4171 28.0182 39.3457C27.8205 39.2594 27.6056 39.2199 27.3902 39.2301C27.1748 39.2403 26.9646 39.3001 26.776 39.4047C26.6394 39.4885 26.5742 39.5755 26.5959 39.6189Z" fill="#263238"/>
<path d="M23.4118 40.4261C23.4863 40.4944 23.7223 40.3733 24.0049 40.3236C24.2875 40.2739 24.5515 40.2926 24.595 40.1994C24.6136 40.1559 24.5608 40.0814 24.4428 40.0255C24.2839 39.9548 24.1071 39.9353 23.9366 39.9696C23.7666 39.9996 23.6102 40.0821 23.4894 40.2056C23.3994 40.305 23.3776 40.3919 23.4118 40.4261Z" fill="#263238"/>
<path d="M22.5606 39.339C22.5606 39.339 23.9673 39.8141 25.5821 38.7334C26.6411 38.0254 27.9267 37.5814 28.2465 37.7739C28.5664 37.9664 28.7745 39.1216 29.939 39.3266C29.939 39.3266 30.1439 41.5625 31.0228 41.3699C31.6438 41.2333 31.2836 38.7676 31.0228 37.3609C30.9683 37.0889 30.8243 36.843 30.6138 36.6623C30.4033 36.4817 30.1384 36.3767 29.8613 36.364L28.2248 36.2988L26.1815 36.8702L23.9891 37.4665L22.3184 38.1652L22.5606 39.339Z" fill="#263238"/>
<path d="M30.8281 40.4606C30.8592 40.4388 32.2162 39.7246 32.4678 41.2059C32.7193 42.6871 31.1821 42.6312 31.1697 42.5909C31.1573 42.5505 30.8281 40.4606 30.8281 40.4606Z" fill="#B78876"/>
<path d="M31.5254 41.9497C31.5254 41.9497 31.5564 41.9653 31.603 41.9777C31.6684 41.9932 31.7372 41.9832 31.7955 41.9497C31.88 41.8726 31.9428 41.7746 31.9776 41.6657C32.0125 41.5567 32.0182 41.4405 31.9943 41.3287C31.9763 41.2013 31.9307 41.0794 31.8607 40.9715C31.8382 40.9279 31.8056 40.8902 31.7656 40.8616C31.7257 40.833 31.6795 40.8142 31.6309 40.8069C31.6001 40.8043 31.5693 40.8125 31.5438 40.83C31.5183 40.8476 31.4997 40.8735 31.4912 40.9032C31.4912 40.9467 31.4912 40.9746 31.4912 40.9809C31.4912 40.9871 31.457 40.9591 31.457 40.897C31.4597 40.859 31.475 40.8229 31.5005 40.7945C31.5364 40.757 31.5853 40.7348 31.6371 40.7324C31.7003 40.7336 31.7621 40.7511 31.8165 40.7832C31.8709 40.8153 31.9161 40.8609 31.9477 40.9156C32.0326 41.0329 32.0871 41.1695 32.1061 41.3131C32.1369 41.4439 32.1279 41.5808 32.0803 41.7064C32.0327 41.832 31.9487 41.9405 31.839 42.0181C31.8011 42.036 31.7598 42.0453 31.7179 42.0453C31.676 42.0453 31.6346 42.036 31.5968 42.0181C31.5347 41.987 31.5222 41.9559 31.5254 41.9497Z" fill="#AA6550"/>
<path d="M23.2715 35.5859C23.2715 35.5859 23.3212 35.6666 23.4268 35.7846C23.578 35.952 23.7708 36.0763 23.9857 36.1448C24.305 36.248 24.6462 36.263 24.9732 36.1883C25.3799 36.0895 25.7794 35.9629 26.1688 35.8095C26.572 35.6507 27.0026 35.5736 27.4358 35.5828C27.8022 35.596 28.1488 35.752 28.4016 36.0175C28.5738 36.1908 28.6784 36.4198 28.6966 36.6634C28.7095 36.7518 28.6943 36.842 28.6531 36.9212C28.6376 36.9212 28.6531 36.828 28.6345 36.6696C28.5957 36.4496 28.4868 36.2481 28.3239 36.0951C28.0847 35.8658 27.7672 35.736 27.4358 35.7318C27.0223 35.7322 26.6125 35.8101 26.2278 35.9616C25.8319 36.1191 25.4237 36.2437 25.0074 36.3343C24.6559 36.407 24.291 36.379 23.9547 36.2535C23.7264 36.1697 23.5277 36.0207 23.3833 35.825C23.2715 35.6821 23.2715 35.589 23.2715 35.5859Z" fill="#455A64"/>
<path d="M28.2753 37.0032C28.2753 37.0032 28.2008 36.9256 28.0455 36.8169C27.8241 36.6814 27.5692 36.6104 27.3095 36.6119C26.9159 36.6104 26.5278 36.7053 26.1792 36.8883C25.7435 37.1236 25.2934 37.331 24.8314 37.5094C24.3932 37.6454 23.9317 37.6899 23.4755 37.6403C23.0193 37.5906 22.5782 37.4477 22.1795 37.2206C21.9382 37.0849 21.7176 36.9155 21.5242 36.7175C21.4489 36.6502 21.3859 36.5703 21.3379 36.4815C21.6128 36.7245 21.9126 36.9379 22.2322 37.1181C23.0175 37.5302 23.9336 37.6161 24.7818 37.3572C25.2371 37.173 25.6828 36.9657 26.1171 36.7361C26.4877 36.5486 26.9009 36.4608 27.3158 36.4815C27.5977 36.4923 27.8692 36.5911 28.0921 36.7641C28.1736 36.8258 28.2369 36.9084 28.2753 37.0032Z" fill="#455A64"/>
<path d="M23.6754 62.2393L16.4647 56.0938L14.0859 56.631C14.0859 56.631 16.592 61.8418 18.4055 63.7516C18.4055 63.7516 20.1973 66.149 23.1537 65.1118C26.11 64.0746 23.6754 62.2393 23.6754 62.2393Z" fill="#B78876"/>
<path d="M15.9194 49.3242H12.8544C12.7387 49.3305 12.6259 49.3625 12.5242 49.4178C12.4224 49.4732 12.3343 49.5505 12.2662 49.6442C12.1981 49.7379 12.1517 49.8456 12.1304 49.9594C12.1092 50.0733 12.1136 50.1905 12.1433 50.3024L15.2269 56.3051C15.2854 56.4194 15.3743 56.5154 15.484 56.5822C15.5936 56.6491 15.7196 56.6843 15.848 56.684H19.5744C19.662 56.6742 19.7459 56.6429 19.8184 56.5929C19.891 56.5428 19.9501 56.4756 19.9903 56.3972C20.0306 56.3188 20.0509 56.2317 20.0493 56.1435C20.0477 56.0554 20.0243 55.969 19.9812 55.8921L17.0094 50.0136C16.9082 49.8099 16.7531 49.6379 16.5609 49.5164C16.3687 49.3948 16.1468 49.3283 15.9194 49.3242Z" fill="#455A64"/>
<path d="M15.7134 49.6856H12.6484C12.5604 49.685 12.4738 49.7071 12.3969 49.7497C12.3199 49.7924 12.2552 49.8541 12.2091 49.929C12.1629 50.0039 12.1368 50.0894 12.1332 50.1773C12.1297 50.2652 12.1488 50.3525 12.1888 50.4308L15.1979 56.3031C15.2569 56.417 15.346 56.5125 15.4555 56.5793C15.565 56.6461 15.6907 56.6816 15.819 56.682H19.5144C19.5651 56.6799 19.6146 56.6653 19.6584 56.6397C19.7022 56.614 19.7391 56.578 19.7657 56.5348C19.7924 56.4916 19.8081 56.4425 19.8114 56.3918C19.8146 56.3411 19.8054 56.2904 19.7846 56.2441L16.8096 50.3687C16.7091 50.1637 16.5531 49.991 16.3593 49.8702C16.1655 49.7495 15.9418 49.6855 15.7134 49.6856Z" fill="#263238"/>
<path d="M15.4521 52.1387L13.5889 52.884L13.1914 54.387L14.0889 56.6228L17.3713 57.1073L16.4086 56.1229L16.5297 55.2627C16.5297 55.2627 17.4613 54.9739 17.4613 54.8341C17.4613 54.6944 17.3464 54.2131 17.2067 54.1975C16.839 54.2815 16.4787 54.3947 16.1291 54.536C16.1291 54.536 17.2688 53.6324 17.2377 53.4864C17.2067 53.3405 17.0825 52.9709 16.8558 52.9274C16.6291 52.884 14.7845 53.7566 14.7845 53.7566L14.4739 54.4367L14.2131 53.3467C14.2131 53.3467 15.8558 52.8871 15.4521 52.1387Z" fill="#B78876"/>
<path d="M15.6882 55.6663C15.6882 55.6663 15.6416 55.6042 15.623 55.48C15.6033 55.3218 15.6212 55.1613 15.6752 55.0113C15.7291 54.8613 15.8176 54.7261 15.9335 54.6167C16.0267 54.536 16.0981 54.508 16.1043 54.5173C15.9626 54.6743 15.8463 54.8524 15.7596 55.0453C15.7043 55.2474 15.6802 55.4569 15.6882 55.6663Z" fill="#AA6550"/>
<path d="M14.8008 55.3415C14.8372 55.1809 14.8621 55.018 14.8753 54.8539C14.8829 54.6705 14.9142 54.4889 14.9685 54.3136C15.004 54.201 15.0659 54.0985 15.1491 54.0148C15.2323 53.931 15.3343 53.8685 15.4467 53.8322C15.8908 53.6708 16.2945 53.5403 16.5864 53.4441C16.7425 53.3851 16.9036 53.3404 17.0677 53.3105C16.9231 53.393 16.7701 53.4597 16.6112 53.5093C16.3224 53.6211 15.9187 53.7639 15.4809 53.9223C15.3786 53.9575 15.2853 54.0148 15.2076 54.09C15.1386 54.1631 15.0857 54.2499 15.0523 54.3446C14.9955 54.5125 14.959 54.6866 14.9436 54.8632C14.9376 55.0322 14.8884 55.1969 14.8008 55.3415Z" fill="#AA6550"/>
<path d="M14.3716 55.0056C14.3423 54.8842 14.3423 54.7575 14.3716 54.6361C14.4058 54.4374 14.4524 54.2821 14.4803 54.2852C14.5095 54.4067 14.5095 54.5333 14.4803 54.6547C14.4462 54.8535 14.3996 55.0088 14.3716 55.0056Z" fill="#AA6550"/>
<path d="M14.3223 50.819C14.3223 50.8964 14.3452 50.9721 14.3882 51.0364C14.4312 51.1007 14.4923 51.1509 14.5638 51.1805C14.6353 51.2101 14.714 51.2179 14.7899 51.2028C14.8658 51.1877 14.9355 51.1504 14.9902 51.0957C15.045 51.041 15.0822 50.9713 15.0973 50.8954C15.1124 50.8195 15.1047 50.7408 15.0751 50.6693C15.0454 50.5978 14.9953 50.5367 14.9309 50.4937C14.8666 50.4507 14.7909 50.4277 14.7136 50.4277C14.6621 50.4273 14.611 50.4372 14.5633 50.4567C14.5157 50.4762 14.4724 50.505 14.436 50.5414C14.3995 50.5778 14.3707 50.6211 14.3512 50.6688C14.3317 50.7165 14.3219 50.7675 14.3223 50.819Z" fill="#FAFAFA"/>
</svg>
