<svg width="61" height="41" viewBox="0 0 61 41" fill="none" xmlns="http://www.w3.org/2000/svg">
<path d="M60.5604 17.4506C59.9104 13.9059 58.7571 11.4131 56.786 9.21768C55.2763 7.57109 53.7036 6.54197 51.9003 6.03885C50.768 5.71868 49.7196 5.67294 44.4984 5.81016L38.4174 5.97024V5.00973C38.4174 2.81428 37.39 0.595953 36.2367 0.36726C35.335 0.161436 35.1673 0.481606 35.2302 2.26541C35.2931 4.34652 35.5867 5.00973 36.5303 5.28416C38.3755 5.78729 37.4948 5.90163 33.1753 5.74155C25.2701 5.42138 10.3823 5.51285 9.06123 5.87876C5.26589 6.90788 2.49801 10.2468 1.26086 15.2323C0.631797 17.7479 0.631797 22.8707 1.26086 25.3634C1.88992 27.9248 2.85448 29.8229 4.40617 31.5839C6.04173 33.4134 7.69826 34.3968 9.8161 34.7627C11.4726 35.06 35.8593 35.1515 36.8029 34.877C37.1174 34.7856 37.369 34.8084 37.369 34.9228C37.369 35.0371 37.0125 35.2201 36.5932 35.3344C35.5867 35.586 35.2931 36.2035 35.2302 38.3532C35.1673 40.1141 35.356 40.48 36.1948 40.2513C37.3271 39.954 38.1658 38.4447 38.3755 36.2492L38.5223 34.8313L44.9178 34.6941C50.2857 34.6026 51.5019 34.5111 52.4665 34.1681C56.2618 32.8188 58.9249 29.8687 60.141 25.7065C60.812 23.3967 60.9798 19.829 60.5604 17.4506ZM57.0377 29.8458C56.5973 30.4861 55.7166 31.378 55.1295 31.8354C53.9343 32.7273 52.4665 33.4592 52.4665 33.1618C52.4665 32.4986 58.17 26.2553 58.7781 26.2553C59.0716 26.2553 58.0022 28.4736 57.0377 29.8458ZM58.149 14.3633C57.8345 14.3633 53.8924 10.1553 52.823 8.66882C52.2568 7.91413 51.8794 7.27379 51.9632 7.27379C52.0261 7.27379 52.6971 7.59396 53.452 8.00561C55.0456 8.85177 56.7861 10.7957 57.7087 12.7167C58.3797 14.1346 58.4426 14.3633 58.149 14.3633ZM42.8418 23.9226C42.5902 25.2033 42.1079 26.7813 41.5837 27.9248C40.7869 29.7086 39.2143 32.0641 38.5433 32.4758C38.3336 32.5901 37.2222 32.3614 35.5238 31.8354L32.8398 31.0121L33.1962 29.1597C34.1608 24.38 34.2237 17.5192 33.3849 12.4194C33.1753 11.0472 32.9656 9.74368 32.9656 9.56072C32.9656 9.30916 33.6366 9.0576 35.6286 8.57734C38.69 7.84552 38.6691 7.84552 40.1159 9.83515C42.8209 13.5857 43.8274 18.7084 42.8418 23.9226ZM28.9396 8.64595C27.7653 8.78317 26.4653 8.80604 25.2491 8.66882C22.9425 8.39439 19.7553 7.73118 19.7553 7.50248C19.7553 6.83927 31.2461 6.95362 32.7559 7.66257C33.1753 7.84552 31.2461 8.34865 28.9396 8.64595ZM30.4703 33.3219C26.8846 33.7336 19.7553 33.5735 19.7553 33.1161C19.7553 32.7502 24.7039 31.904 26.8846 31.904C29.1702 31.904 33.1333 32.5672 32.8188 32.9103C32.7349 33.0018 31.6655 33.2076 30.4703 33.3219ZM17.6584 14.3633C17.281 18.4798 17.4277 25.5921 17.9939 29.4799L18.0987 30.2803L16.8197 30.7148C16.0648 30.9664 15.4777 31.0579 15.3728 30.9207C14.9954 30.4861 13.6743 26.5069 13.234 24.5173C12.8566 22.8021 12.8146 22.0016 12.8985 19.3945C13.0033 16.1471 13.234 14.9121 14.3034 11.9163C15.2051 9.3549 15.1422 9.42351 16.2116 9.76655C18.1197 10.4069 18.1197 10.384 17.9939 11.3445C17.91 11.8019 17.7632 13.1741 17.6584 14.3633Z" fill="black"/>
</svg>
